<svg xmlns="http://www.w3.org/2000/svg" width="256" height="256" viewBox="0 0 100 100"><rect width="100" height="100" rx="50" fill="#4a90e2"></rect><path d="M50.37 78.44L30.64 78.44L30.64 21.56L49.24 21.56Q58.50 21.56 63.16 25.39Q67.83 29.22 67.83 36.72L67.83 36.72Q67.83 40.70 65.57 43.77Q63.30 46.84 59.39 48.52L59.39 48.52Q64.00 49.80 66.68 53.42Q69.36 57.03 69.36 62.03L69.36 62.03Q69.36 69.69 64.39 74.06Q59.43 78.44 50.37 78.44L50.37 78.44ZM50.64 51.84L38.14 51.84L38.14 72.30L50.53 72.30Q55.76 72.30 58.79 69.59Q61.82 66.88 61.82 62.11L61.82 62.11Q61.82 51.84 50.64 51.84L50.64 51.84ZM38.14 27.73L38.14 45.82L49.47 45.82Q54.39 45.82 57.34 43.36Q60.29 40.90 60.29 36.68L60.29 36.68Q60.29 31.99 57.56 29.86Q54.82 27.73 49.24 27.73L49.24 27.73L38.14 27.73Z" fill="#f8e71c"></path></svg>